<svg width="36" height="32" viewBox="0 0 36 32" fill="none" xmlns="http://www.w3.org/2000/svg">
<path d="M15.9766 29.3203C13.8358 27.4439 11.6742 24.8178 9.8299 21.6878C7.98562 18.5578 6.74537 15.4104 6.15733 12.6556L4.54317 16.7038C3.54533 19.2064 3.76257 22.0177 5.13359 24.3445C6.50461 26.6713 8.88074 28.2614 11.5915 28.6659L15.9766 29.3203Z" fill="white"/>
<path d="M2.84731 19.5384C2.70239 19.5966 2.56047 19.6647 2.42219 19.7429C0.347234 20.9167 -0.12091 23.9285 1.37656 26.47C2.87403 29.0114 5.77006 30.12 7.84501 28.9462C7.98329 28.868 8.11443 28.7816 8.23833 28.6877C6.56984 27.8264 5.15967 26.5142 4.19434 24.8759C3.22901 23.2376 2.77432 21.3849 2.84731 19.5384Z" fill="white"/>
<path d="M3.94769 19.2855C3.81923 21.0306 4.22055 22.795 5.13359 24.3445C6.04663 25.8941 7.40544 27.1169 9.01199 27.8804C10.0313 26.4197 10.0457 24.1795 8.89065 22.2191C7.73556 20.2588 5.74834 19.1509 3.94769 19.2855Z" fill="white"/>
<path d="M16.9462 9.05553C16.4964 8.9555 16.0349 8.97419 15.625 9.20605C15.109 9.498 14.8506 10.0284 14.7467 10.5957C14.6422 11.1661 14.6766 11.8501 14.8141 12.5879C15.0899 14.0683 15.8035 15.8851 16.8743 17.7026C17.9452 19.5201 19.1943 21.0339 20.3648 22.0082C20.9482 22.4938 21.5355 22.865 22.0919 23.0615C22.6452 23.257 23.2432 23.303 23.7592 23.011C24.1925 22.766 24.444 22.3528 24.5751 21.8909C24.2522 21.6498 23.9292 21.3866 23.6083 21.1025C23.6014 21.222 23.5886 21.3325 23.5701 21.4336C23.4963 21.8363 23.3493 22.0158 23.217 22.0907C23.0846 22.1656 22.8524 22.2005 22.4597 22.0618C22.0701 21.9242 21.5955 21.6382 21.067 21.1983C20.0138 20.3217 18.8392 18.9118 17.8136 17.1713C16.788 15.4307 16.1292 13.729 15.881 12.397C15.7565 11.7286 15.741 11.1829 15.8142 10.7834C15.888 10.3808 16.0349 10.2013 16.1673 10.1264C16.2997 10.0515 16.5318 10.0166 16.9246 10.1553C17.0027 10.1829 17.0843 10.2165 17.169 10.2561C17.076 9.84694 17.0017 9.44604 16.9462 9.05553Z" fill="white"/>
<path fill-rule="evenodd" clip-rule="evenodd" d="M25.1463 28.499C24.9707 29.5501 24.5066 30.5645 23.5271 31.1186C22.5475 31.6727 21.4189 31.5594 20.4021 31.1829C19.3757 30.8028 18.2939 30.0988 17.2211 29.188C15.0671 27.3594 12.7597 24.5346 10.7692 21.1564C8.77864 17.7782 7.43574 14.4079 6.89656 11.6657C6.62794 10.3 6.54663 9.03 6.72386 7.96892C6.89947 6.91783 7.36364 5.90344 8.34315 5.34932C9.32265 4.7952 10.4513 4.90851 11.4681 5.28504C12.4945 5.66519 13.5763 6.36917 14.6491 7.28C14.7721 7.38444 14.8957 7.49212 15.0196 7.60298C14.7179 7.79657 14.4636 8.05159 14.2562 8.35911C12.0905 6.43098 10.1128 5.57533 8.88543 6.26966C7.92152 6.81495 7.5712 8.2309 7.7661 10.1708C7.77086 8.87149 8.11607 7.93206 8.83588 7.52485C9.9606 6.88858 11.7764 7.67806 13.7676 9.45405C13.174 11.5967 13.8759 14.9527 15.7924 18.2053C17.7274 21.4892 20.3745 23.7751 22.5777 24.3151C23.1932 26.9667 22.9968 28.9644 21.8507 29.6128C21.1308 30.02 20.1281 29.8433 18.9775 29.1978C20.5944 30.333 22.021 30.7435 22.9848 30.1983C24.2365 29.4902 24.4536 27.3135 23.7853 24.428C24.1594 24.3988 24.5101 24.303 24.8296 24.1354C24.8827 24.3614 24.9307 24.5838 24.9736 24.8022C25.2423 26.168 25.3236 27.438 25.1463 28.499ZM11.7084 20.6251C10.7615 19.0179 9.97001 17.4215 9.34813 15.9066C9.42903 15.807 9.5241 15.7253 9.6336 15.6633C10.7188 15.0494 12.8126 16.6119 14.3101 19.1533C15.8076 21.6947 16.1416 24.2527 15.0564 24.8666C14.9469 24.9286 14.8271 24.9684 14.6987 24.9872C13.6707 23.702 12.6554 22.2322 11.7084 20.6251Z" fill="white"/>
<path fill-rule="evenodd" clip-rule="evenodd" d="M22.1327 5.36925C22.6024 7.47116 23.7005 10.1588 25.3277 12.9204C26.9549 15.6821 28.7813 17.9577 30.4042 19.4072C31.2181 20.1341 31.9574 20.6322 32.5745 20.8894C33.2022 21.1511 33.6007 21.1249 33.8394 20.9899C34.0782 20.8548 34.3006 20.5297 34.3831 19.8662C34.4643 19.214 34.3938 18.3376 34.1583 17.2835C33.6886 15.1816 32.5905 12.4939 30.9633 9.73231C29.3361 6.97069 27.5097 4.69503 25.8868 3.24553C25.0729 2.51861 24.3335 2.02058 23.7165 1.76333C23.0887 1.50166 22.6902 1.52783 22.4515 1.66288C22.2128 1.79793 21.9904 2.123 21.9078 2.7865C21.8267 3.43876 21.8972 4.31516 22.1327 5.36925ZM20.8312 2.65786C20.9316 1.8518 21.2402 1.12105 21.9092 0.742551C22.5783 0.364048 23.3785 0.467546 24.1411 0.785446C24.9143 1.10778 25.7569 1.69158 26.6174 2.46014C28.3432 4.00158 30.2353 6.37143 31.9025 9.20096C33.5698 12.0305 34.7183 14.821 35.2177 17.0562C35.4668 18.1707 35.5614 19.1776 35.4597 19.9949C35.3594 20.8009 35.0508 21.5317 34.3817 21.9102C33.7127 22.2887 32.9125 22.1852 32.1499 21.8673C31.3767 21.545 30.5341 20.9612 29.6736 20.1926C27.9477 18.6512 26.0557 16.2813 24.3884 13.4518C22.7212 10.6223 21.5727 7.83178 21.0732 5.59655C20.8242 4.48207 20.7295 3.47516 20.8312 2.65786Z" fill="white"/>
<path d="M23.315 5.64759C23.4731 6.25186 23.6825 6.90513 23.9417 7.59474C25.0544 8.68371 26.1958 10.1429 27.2062 11.8577C28.2167 13.5726 28.9356 15.2707 29.3417 16.7594C29.8217 17.3241 30.2943 17.8285 30.7494 18.2648C30.7351 18.1488 30.7186 18.0314 30.7 17.9129C30.3991 15.9973 29.5181 13.6559 28.1455 11.3264C26.7729 8.99686 25.144 7.07852 23.6014 5.8654C23.5059 5.79033 23.4104 5.71769 23.315 5.64759Z" fill="white"/>
<path d="M30.0011 21.8405C29.867 21.9772 29.7139 22.0966 29.5401 22.1949C28.9104 22.5512 28.1712 22.5382 27.4436 22.3148C26.7167 22.0915 25.9454 21.6436 25.1755 21.0382C23.6329 19.8251 22.004 17.9067 20.6314 15.5772C19.2588 13.2477 18.3777 10.9063 18.0769 8.99069C17.9267 8.03468 17.9165 7.15621 18.0826 6.42773C18.2489 5.69865 18.607 5.06487 19.2368 4.70863C19.4105 4.61033 19.5926 4.54014 19.7805 4.49472C19.8228 4.84029 19.882 5.1936 19.9553 5.55127C19.8918 5.57223 19.8332 5.59835 19.779 5.62896C19.501 5.78628 19.2674 6.10529 19.1411 6.65949C19.0145 7.21429 19.0107 7.94957 19.1488 8.82904C19.4245 10.5844 20.2478 12.8008 21.5707 15.0458C22.8935 17.2909 24.4408 19.0977 25.8544 20.2094C26.5626 20.7663 27.2144 21.1307 27.768 21.3007C28.321 21.4706 28.7198 21.4319 28.9978 21.2746C29.052 21.244 29.1044 21.2073 29.1547 21.1639C29.4341 21.405 29.7168 21.6318 30.0011 21.8405Z" fill="white"/>
</svg>
