<svg width="30" height="34" viewBox="0 0 30 34" fill="none" xmlns="http://www.w3.org/2000/svg">
<path d="M17.3002 1.11381C15.8768 0.295396 14.1232 0.295397 12.6998 1.11381L2.30018 7.0935C1.85951 7.34688 1.47123 7.66678 1.14514 8.0363L14.999 15.6248L28.8326 8.01121C28.5111 7.65229 28.1305 7.34112 27.6998 7.0935L17.3002 1.11381Z" fill="white"/>
<path d="M29.722 9.49253L15.866 17.1185V33.5C16.3633 33.4051 16.8484 33.2278 17.3002 32.968L27.6998 26.9883C29.1232 26.1699 30 24.6574 30 23.0206V11.0612C30 10.5177 29.9033 9.98781 29.722 9.49253Z" fill="white"/>
<path d="M14.134 33.5V17.1196L0.266682 9.52379C0.0926774 10.0101 0 10.5291 0 11.0612V23.0206C0 24.6574 0.876824 26.1699 2.30018 26.9883L12.6998 32.968C13.1516 33.2278 13.6367 33.4051 14.134 33.5Z" fill="white"/>
</svg>
