<svg width="34" height="20" viewBox="0 0 34 20" fill="none" xmlns="http://www.w3.org/2000/svg">
<path d="M0 4.93506C0 2.2095 2.17462 0 4.85714 0H18.406C21.0885 0 23.2632 2.2095 23.2632 4.93506V15.0649C23.2632 17.7905 21.0885 20 18.406 20H4.85714C2.17462 20 0 17.7905 0 15.0649V4.93506Z" fill="white"/>
<path d="M24.2813 7.53434C24.2813 6.05767 25.1452 4.72228 26.4794 4.13661L30.6082 2.32411C32.2116 1.62028 34 2.81467 34 4.58927V15.3654C34 17.1399 32.2116 18.3343 30.6082 17.6305L26.4794 15.818C25.1452 15.2323 24.2813 13.8969 24.2813 12.4203V7.53434Z" fill="white"/>
</svg>
