<svg width="34" height="34" viewBox="0 0 34 34" fill="none" xmlns="http://www.w3.org/2000/svg">
<path d="M28.7692 17C28.7692 17.3404 29.029 17.6303 29.3689 17.6479L33.0925 17.8399C33.5811 17.8651 34 17.4893 34 17C34 16.5107 33.5811 16.1349 33.0925 16.1601L29.3689 16.3521C29.029 16.3697 28.7692 16.6596 28.7692 17Z" fill="white"/>
<path d="M28.0376 11.3755C27.7344 11.5303 27.3642 11.4083 27.1937 11.1137C27.0233 10.8191 27.103 10.4389 27.3883 10.2532L30.5096 8.22207C30.9218 7.95385 31.4748 8.06813 31.7211 8.49378C31.9674 8.91944 31.7923 9.4585 31.3543 9.68212L28.0376 11.3755Z" fill="white"/>
<path d="M23.7468 6.61174C23.5611 6.89702 23.1809 6.97673 22.8863 6.80625C22.5917 6.63578 22.4697 6.26558 22.6245 5.96245L24.3179 2.64568C24.5415 2.20767 25.0806 2.03258 25.5062 2.2789C25.9319 2.52522 26.0462 3.07819 25.7779 3.49039L23.7468 6.61174Z" fill="white"/>
<path d="M17.6479 4.63106C17.6303 4.97102 17.3404 5.23077 17 5.23077C16.6596 5.23077 16.3697 4.97102 16.3521 4.63106L16.1601 0.907519C16.1349 0.418897 16.5107 0 17 0C17.4893 0 17.8651 0.418898 17.8399 0.907519L17.6479 4.63106Z" fill="white"/>
<path d="M11.3755 5.96245C11.5303 6.26558 11.4083 6.63578 11.1137 6.80625C10.8191 6.97673 10.4389 6.89702 10.2532 6.61174L8.22207 3.49039C7.95385 3.07819 8.06813 2.52522 8.49378 2.2789C8.91944 2.03258 9.4585 2.20767 9.68212 2.64568L11.3755 5.96245Z" fill="white"/>
<path d="M6.61174 10.2532C6.89702 10.4389 6.97673 10.8191 6.80625 11.1137C6.63578 11.4083 6.26558 11.5303 5.96244 11.3755L2.64568 9.68213C2.20767 9.4585 2.03258 8.91944 2.2789 8.49379C2.52522 8.06813 3.07819 7.95385 3.49039 8.22207L6.61174 10.2532Z" fill="white"/>
<path d="M5.23077 17C5.23077 16.6596 4.97102 16.3697 4.63106 16.3521L0.907519 16.1601C0.418898 16.1349 0 16.5107 0 17C0 17.4893 0.418897 17.8651 0.907519 17.8399L4.63106 17.6479C4.97102 17.6303 5.23077 17.3404 5.23077 17Z" fill="white"/>
<path d="M5.96244 22.6245C6.26558 22.4697 6.63578 22.5917 6.80625 22.8863C6.97673 23.1809 6.89702 23.5611 6.61174 23.7468L3.49039 25.7779C3.07819 26.0462 2.52522 25.9319 2.2789 25.5062C2.03258 25.0806 2.20767 24.5415 2.64568 24.3179L5.96244 22.6245Z" fill="white"/>
<path d="M10.2532 27.3883C10.4389 27.103 10.8191 27.0233 11.1137 27.1937C11.4083 27.3642 11.5303 27.7344 11.3755 28.0376L9.68213 31.3543C9.4585 31.7923 8.91944 31.9674 8.49378 31.7211C8.06813 31.4748 7.95385 30.9218 8.22207 30.5096L10.2532 27.3883Z" fill="white"/>
<path d="M16.3521 29.3689C16.3697 29.029 16.6596 28.7692 17 28.7692C17.3404 28.7692 17.6303 29.029 17.6479 29.3689L17.8399 33.0925C17.8651 33.5811 17.4893 34 17 34C16.5107 34 16.1349 33.5811 16.1601 33.0925L16.3521 29.3689Z" fill="white"/>
<path d="M22.6245 28.0376C22.4697 27.7344 22.5917 27.3642 22.8863 27.1937C23.1809 27.0233 23.5611 27.103 23.7468 27.3883L25.7779 30.5096C26.0462 30.9218 25.9319 31.4748 25.5062 31.7211C25.0806 31.9674 24.5415 31.7923 24.3179 31.3543L22.6245 28.0376Z" fill="white"/>
<path d="M27.3883 23.7468C27.103 23.5611 27.0233 23.1809 27.1937 22.8863C27.3642 22.5917 27.7344 22.4697 28.0376 22.6245L31.3543 24.3179C31.7923 24.5415 31.9674 25.0806 31.7211 25.5062C31.4748 25.9319 30.9218 26.0462 30.5096 25.7779L27.3883 23.7468Z" fill="white"/>
<path d="M17 26.1538C22.0555 26.1538 26.1538 22.0555 26.1538 17C26.1538 11.9445 22.0555 7.84615 17 7.84615C11.9445 7.84615 7.84615 11.9445 7.84615 17C7.84615 22.0555 11.9445 26.1538 17 26.1538Z" fill="white"/>
</svg>
