<svg width="28" height="32" viewBox="0 0 28 32" fill="none" xmlns="http://www.w3.org/2000/svg">
<path fill-rule="evenodd" clip-rule="evenodd" d="M0 22.9109C0 23.6889 0.410724 24.4082 1.07772 24.7972L12.9224 31.7082C13.5891 32.0973 14.4109 32.0973 15.0779 31.7082L26.9223 24.7972C27.5893 24.4082 28 23.6889 28 22.9109V9.0891C28 8.31081 27.5893 7.59181 26.9223 7.2028L15.0779 0.29176C14.4109 -0.0972533 13.5891 -0.0972533 12.9224 0.29176L1.07772 7.2028C0.410724 7.59181 0 8.31081 0 9.0891V22.9109ZM0.933272 22.9955C0.933535 23.3842 1.13877 23.7434 1.47187 23.9381L13.3213 30.8568C14.0399 31.2764 14.9384 30.7523 14.9381 29.9134L14.9339 16.712C14.9337 15.9342 14.5232 15.2157 13.8567 14.8264L2.54591 8.22226C1.82734 7.80267 0.928799 8.32676 0.929062 9.16541L0.933272 22.9955Z" fill="white"/>
<path fill-rule="evenodd" clip-rule="evenodd" d="M2.19623 22.9259C2.04743 22.6654 2.13573 22.3324 2.39347 22.182L12.9391 16.029C13.1968 15.8787 13.5264 15.9679 13.6752 16.2284C13.824 16.4888 13.7357 16.8219 13.4779 16.9723L2.93233 23.1252C2.67459 23.2756 2.34503 23.1864 2.19623 22.9259Z" fill="white"/>
</svg>
