<svg width="36" height="34" viewBox="0 0 36 34" fill="none" xmlns="http://www.w3.org/2000/svg">
<path d="M27.3782 16.6801C20.0023 16.6801 16.0455 16.6801 8.62126 16.6801C8.62126 11.5538 12.8202 7.39822 17.9998 7.39822C23.1794 7.39822 27.3782 11.5538 27.3782 16.6801Z" fill="white"/>
<path d="M8.71624 18.0061C9.36634 22.5042 13.275 25.9619 17.9998 25.9619C22.7245 25.9619 26.6332 22.5042 27.2833 18.0061H25.9273C25.2895 21.7688 21.9829 24.636 17.9998 24.636C14.0166 24.636 10.71 21.7688 10.0722 18.0061H8.71624Z" fill="white"/>
<path d="M1.49979 21.8312C1.08363 21.9615 0.638454 21.7355 0.525656 21.3182C0.413072 20.9016 0.682572 20.4822 1.10782 20.3885L1.64627 20.2699C1.75196 20.7436 1.87811 21.2097 2.02379 21.6672L1.49979 21.8312Z" fill="white"/>
<path d="M6.31143 29.3009C6.01683 29.6186 5.51654 29.641 5.20852 29.3361C4.90019 29.0309 4.92341 28.5352 5.24522 28.2439L5.65101 27.8765C5.98025 28.232 6.32495 28.5732 6.68406 28.8992L6.31143 29.3009Z" fill="white"/>
<path d="M14.2533 33.3993C14.1589 33.8195 13.7357 34.0859 13.3155 33.9747C12.895 33.8634 12.6668 33.4242 12.7974 33.0133L12.963 32.4921C13.4248 32.6361 13.8952 32.7607 14.3733 32.8652L14.2533 33.3993Z" fill="white"/>
<path d="M23.2045 33.01C23.3361 33.4219 23.1077 33.8625 22.686 33.9741C22.2652 34.0855 21.8414 33.8188 21.7467 33.3979L21.6269 32.865C22.1055 32.7604 22.5764 32.6356 23.0387 32.4914L23.2045 33.01Z" fill="white"/>
<path d="M30.752 28.2479C31.073 28.5395 31.0956 29.0346 30.7875 29.3395C30.4791 29.6446 29.9782 29.6217 29.6839 29.3032L29.3128 28.9016C29.672 28.5757 30.0167 28.2346 30.346 27.8791L30.752 28.2479Z" fill="white"/>
<path d="M34.8931 20.3878C35.3176 20.4813 35.5868 20.9001 35.4744 21.316C35.362 21.7322 34.9183 21.958 34.503 21.8287L33.9764 21.6648C34.1219 21.2078 34.2478 20.7422 34.3534 20.269L34.8931 20.3878Z" fill="white"/>
<path d="M2.95434 19.9817C3.05153 20.4175 3.16755 20.8463 3.30153 21.2672L4.57927 20.8671C4.45699 20.4829 4.3511 20.0914 4.2624 19.6936L2.95434 19.9817Z" fill="white"/>
<path d="M31.7372 19.6931L33.0453 19.9811C32.9481 20.417 32.832 20.8459 32.698 21.2669L31.4196 20.8689C31.5422 20.4839 31.6483 20.0917 31.7372 19.6931Z" fill="white"/>
<path d="M5.57046 19.4055C5.65067 19.7654 5.74643 20.1195 5.85701 20.4671L6.66192 20.2151C6.92317 20.1333 7.06741 19.8592 6.99668 19.5972C6.92577 19.3345 6.66087 19.1653 6.39273 19.2243L5.57046 19.4055Z" fill="white"/>
<path d="M29.0021 19.5996C29.0735 19.3355 29.3398 19.1654 29.6093 19.2247L30.4291 19.4052C30.3486 19.7665 30.2524 20.122 30.1412 20.471L29.3395 20.2214C29.0763 20.1395 28.9309 19.8634 29.0021 19.5996Z" fill="white"/>
<path d="M26.0307 25.35C25.8457 25.1498 25.8603 24.84 26.0541 24.6481C26.2482 24.4559 26.5619 24.4416 26.7642 24.6254L27.3849 25.1892C27.1348 25.4593 26.8729 25.7186 26.6001 25.9662L26.0307 25.35Z" fill="white"/>
<path d="M20.5704 28.1675C20.5107 27.9021 20.6818 27.6399 20.9471 27.5698C21.2119 27.4998 21.4889 27.6425 21.5715 27.9011L21.8262 28.6977C21.4749 28.8071 21.1171 28.9019 20.7534 28.9813L20.5704 28.1675Z" fill="white"/>
<path d="M14.4215 27.903C14.5043 27.6425 14.7832 27.4985 15.0498 27.5691C15.3166 27.6397 15.4885 27.9032 15.4285 28.17L15.2462 28.9813C14.8811 28.9016 14.5219 28.8064 14.1693 28.6965L14.4215 27.903Z" fill="white"/>
<path d="M9.23951 24.6283C9.44178 24.4452 9.7549 24.4596 9.94877 24.6514C10.143 24.8435 10.1574 25.1541 9.97173 25.3542L9.40199 25.9686C9.1291 25.721 8.86715 25.4618 8.61695 25.1918L9.23951 24.6283Z" fill="white"/>
<path d="M7.6283 26.0867L6.63966 26.9816C6.94255 27.3086 7.25966 27.6225 7.59004 27.9223L8.49601 26.9454C8.19438 26.6717 7.90485 26.3852 7.6283 26.0867Z" fill="white"/>
<path d="M13.7672 29.9617L13.3651 31.2269C13.7905 31.3595 14.2239 31.4744 14.6643 31.5706L14.9553 30.2759C14.5525 30.188 14.1562 30.083 13.7672 29.9617Z" fill="white"/>
<path d="M21.0446 30.2759L21.3357 31.5705C21.776 31.4743 22.2092 31.3594 22.6345 31.2268L22.2303 29.9623C21.8421 30.0833 21.4466 30.1881 21.0446 30.2759Z" fill="white"/>
<path d="M27.5043 26.9446L28.4085 27.9231C28.7389 27.6233 29.0561 27.3095 29.359 26.9825L28.372 26.0859C28.0954 26.3844 27.8059 26.6709 27.5043 26.9446Z" fill="white"/>
<path d="M34.1457 13.2798L30.4143 14.0679C30.0733 14.1399 29.7392 13.9233 29.6486 13.59C29.5581 13.2568 29.7378 12.9053 30.0693 12.7983L33.6969 11.6281C34.176 11.4736 34.6929 11.7306 34.8238 12.2122C34.9547 12.6937 34.6385 13.1757 34.1457 13.2798Z" fill="white"/>
<path d="M30.269 5.75194L27.4312 8.27605C27.1718 8.50674 26.7744 8.48501 26.5281 8.24073C26.2817 7.99645 26.2592 7.60187 26.4928 7.34558L29.0481 4.54143C29.3855 4.17112 29.9654 4.1411 30.3213 4.49406C30.6773 4.84702 30.6437 5.41861 30.269 5.75194Z" fill="white"/>
<path d="M23.0982 1.13895L21.9207 4.73551C21.8132 5.06388 21.4575 5.2422 21.1206 5.15287C20.7837 5.06353 20.5657 4.73304 20.6385 4.39547L21.4358 0.698111C21.5404 0.212925 22.0234 -0.0987289 22.5076 0.0296746C22.9918 0.158078 23.2527 0.666988 23.0982 1.13895Z" fill="white"/>
<path d="M14.5641 0.700448L15.3604 4.39341C15.4332 4.73092 15.2143 5.0615 14.8776 5.15116C14.5408 5.24081 14.1856 5.06295 14.0776 4.73483L12.8952 1.14461C12.739 0.670497 12.9988 0.158892 13.4853 0.0293451C13.9719 -0.100202 14.4589 0.212764 14.5641 0.700448Z" fill="white"/>
<path d="M6.95784 4.53721L9.50823 7.34575C9.74133 7.60244 9.71937 7.99579 9.47255 8.23959C9.22572 8.48338 8.82703 8.50567 8.56807 8.27453L5.73473 5.74555C5.36056 5.41157 5.33023 4.83765 5.68686 4.48539C6.0435 4.13313 6.62104 4.16632 6.95784 4.53721Z" fill="white"/>
<path d="M5.58724 14.0685L1.85139 13.2794C1.36116 13.1758 1.04626 12.6978 1.176 12.2186C1.30574 11.7394 1.81995 11.4812 2.29682 11.6341L5.93083 12.7994C6.26262 12.9058 6.4428 13.2579 6.35253 13.5913C6.26226 13.9248 5.92833 14.1405 5.58724 14.0685Z" fill="white"/>
</svg>
