<svg width="30" height="32" viewBox="0 0 30 32" fill="none" xmlns="http://www.w3.org/2000/svg">
<path d="M14.4459 3.20872C14.4459 4.58944 12.4311 5.70872 9.94586 5.70872C7.46058 5.70872 5.44586 4.58944 5.44586 3.20872C5.44586 1.82801 7.46058 0.708725 9.94586 0.708725C12.4311 0.708725 14.4459 1.82801 14.4459 3.20872Z" fill="white"/>
<path d="M24.4459 8.20872C24.4459 9.58944 22.4311 10.7087 19.9459 10.7087C17.4606 10.7087 15.4459 9.58944 15.4459 8.20872C15.4459 6.82801 17.4606 5.70872 19.9459 5.70872C22.4311 5.70872 24.4459 6.82801 24.4459 8.20872Z" fill="white"/>
<path d="M15.4459 17.2087C15.4459 18.5894 13.4311 19.7087 10.9459 19.7087C8.46058 19.7087 6.44586 18.5894 6.44586 17.2087C6.44586 15.828 8.46058 14.7087 10.9459 14.7087C13.4311 14.7087 15.4459 15.828 15.4459 17.2087Z" fill="white"/>
<path d="M14.4459 5.22159C13.4505 6.12108 11.806 6.70872 9.94586 6.70872C8.0857 6.70872 6.44123 6.12108 5.44586 5.22159V6.20872C5.44586 7.58944 7.46058 8.70872 9.94586 8.70872C12.4311 8.70872 14.4459 7.58944 14.4459 6.20872V5.22159Z" fill="white"/>
<path d="M24.4459 10.2216C23.4505 11.1211 21.806 11.7087 19.9459 11.7087C18.0857 11.7087 16.4412 11.1211 15.4459 10.2216V11.2087C15.4459 12.5894 17.4606 13.7087 19.9459 13.7087C22.4311 13.7087 24.4459 12.5894 24.4459 11.2087V10.2216Z" fill="white"/>
<path d="M15.4459 19.2216C14.4505 20.1211 12.806 20.7087 10.9459 20.7087C9.0857 20.7087 7.44123 20.1211 6.44586 19.2216V20.2087C6.44586 21.5894 8.46058 22.7087 10.9459 22.7087C13.4311 22.7087 15.4459 21.5894 15.4459 20.2087V19.2216Z" fill="white"/>
<path d="M1.24795 5.50409L4.44584 3.62366V6.58371C4.44584 8.3096 6.90827 9.70871 9.94584 9.70871C11.806 9.70871 13.4505 9.18402 14.4458 8.38091V11.5837C14.4458 13.3096 16.9083 14.7087 19.9458 14.7087C22.9834 14.7087 25.4458 13.3096 25.4458 11.5837V8.72115L28.7241 10.5786C29.3509 10.9337 29.7382 11.5984 29.7382 12.3187V14.0952C29.7382 14.8041 29.363 15.46 28.752 15.8193L20.6591 20.5781C20.0432 20.9402 19.281 20.9463 18.6594 20.5941L16.4459 19.34V16.8337C16.4459 15.1078 13.9834 13.7087 10.9459 13.7087C9.69845 13.7087 8.54803 13.9447 7.62531 14.3423L1.27579 10.7447C0.649073 10.3896 0.261719 9.72496 0.261719 9.00463V7.22812C0.261719 6.51927 0.636919 5.86339 1.24795 5.50409Z" fill="white"/>
<path d="M15.4458 3.05524V6.0365C16.1821 5.44245 17.2735 5.00073 18.5447 4.81102L15.4458 3.05524Z" fill="white"/>
<path d="M5.44586 17.9128V20.5837C5.44586 22.3096 7.90833 23.7087 10.9459 23.7087C13.9834 23.7087 16.4459 22.3096 16.4459 20.5837V20.4893L18.1664 21.4642C19.0988 21.9925 20.2422 21.9833 21.166 21.4401L29.2589 16.6813C29.2631 16.6789 29.2672 16.6764 29.2713 16.674C29.5333 17.0174 29.6813 17.4421 29.6813 17.8873V19.7087C29.6813 20.4176 29.3061 21.0735 28.6951 21.4328L12.3986 31.0153C11.7618 31.3897 10.9705 31.3827 10.3405 30.997L1.40155 25.5241C0.807861 25.1606 0.445862 24.5145 0.445862 23.8184V21.9969C0.445862 21.2881 0.821045 20.6322 1.43213 20.2729L5.44586 17.9128Z" fill="white"/>
</svg>
