<svg width="28" height="34" viewBox="0 0 28 34" fill="none" xmlns="http://www.w3.org/2000/svg">
<path d="M23.6923 13.8695C23.6923 14.1473 23.9062 14.3838 24.1862 14.3981L27.2526 14.5548C27.655 14.5753 28 14.2687 28 13.8695C28 13.4704 27.655 13.1638 27.2526 13.1843L24.1862 13.341C23.9062 13.3553 23.6923 13.5918 23.6923 13.8695Z" fill="white"/>
<path d="M23.0898 9.28076C22.8401 9.40702 22.5352 9.30752 22.3949 9.06718C22.2545 8.82684 22.3201 8.5166 22.555 8.36515L25.1256 6.70802C25.465 6.48919 25.9204 6.58243 26.1233 6.9297C26.3261 7.27697 26.1819 7.71677 25.8212 7.89921L23.0898 9.28076Z" fill="white"/>
<path d="M19.5562 5.39423C19.4033 5.62697 19.0901 5.692 18.8475 5.55292C18.6049 5.41383 18.5045 5.11181 18.6319 4.86449L20.0265 2.15849C20.2106 1.80114 20.6546 1.65829 21.0051 1.85925C21.3557 2.06021 21.4498 2.51136 21.2289 2.84765L19.5562 5.39423Z" fill="white"/>
<path d="M14.5335 3.77827C14.5191 4.05564 14.2803 4.26755 14 4.26755C13.7197 4.26755 13.4809 4.05564 13.4665 3.77827L13.3083 0.740404C13.2876 0.34176 13.5971 0 14 0C14.4029 0 14.7124 0.34176 14.6917 0.740404L14.5335 3.77827Z" fill="white"/>
<path d="M9.36805 4.86449C9.49551 5.11181 9.39507 5.41383 9.15247 5.55292C8.90987 5.692 8.59671 5.62697 8.44383 5.39423L6.77112 2.84765C6.55023 2.51136 6.64434 2.06021 6.99488 1.85925C7.34542 1.65829 7.78935 1.80114 7.97351 2.15849L9.36805 4.86449Z" fill="white"/>
<path d="M5.44497 8.36515C5.6799 8.5166 5.74554 8.82684 5.60515 9.06718C5.46476 9.30752 5.15989 9.40702 4.91025 9.28076L2.17879 7.89921C1.81808 7.71677 1.67389 7.27697 1.87674 6.9297C2.07959 6.58243 2.53498 6.48919 2.87444 6.70802L5.44497 8.36515Z" fill="white"/>
<path d="M4.30769 13.8695C4.30769 13.5918 4.09378 13.3553 3.81381 13.341L0.747369 13.1843C0.344974 13.1638 0 13.4704 0 13.8695C0 14.2687 0.344974 14.5753 0.747369 14.5548L3.81381 14.3981C4.09378 14.3838 4.30769 14.1473 4.30769 13.8695Z" fill="white"/>
<path d="M4.91025 18.4583C5.15989 18.3321 5.46476 18.4316 5.60515 18.6719C5.74554 18.9122 5.6799 19.2225 5.44497 19.3739L2.87444 21.0311C2.53498 21.2499 2.07959 21.1567 1.87674 20.8094C1.67389 20.4621 1.81808 20.0223 2.17879 19.8399L4.91025 18.4583Z" fill="white"/>
<path d="M22.555 19.3739C22.3201 19.2225 22.2545 18.9122 22.3949 18.6719C22.5352 18.4316 22.8401 18.3321 23.0898 18.4583L25.8212 19.8399C26.1819 20.0223 26.3261 20.4621 26.1233 20.8094C25.9204 21.1567 25.465 21.2499 25.1256 21.0311L22.555 19.3739Z" fill="white"/>
<path d="M8.61539 26.566C8.61539 26.0206 9.03255 25.564 9.58034 25.5097L18.2064 24.6551C18.8372 24.5927 19.3846 25.0834 19.3846 25.7115C19.3846 26.2569 18.9675 26.7135 18.4197 26.7678L9.79359 27.6224C9.16277 27.6849 8.61539 27.1941 8.61539 26.566Z" fill="white"/>
<path d="M20.112 19.1915C21.1957 17.1515 22.1588 15.3387 22.1588 13.4172C22.1588 8.9532 18.506 5.33444 14 5.33444C9.49404 5.33444 5.84124 8.9532 5.84124 13.4172C5.84124 15.3387 6.80427 17.1515 7.88799 19.1915C8.71345 20.7453 9.60894 22.431 10.2022 24.3969L17.882 23.6361C17.9384 23.6305 17.9944 23.6273 18.0499 23.6263C18.6283 21.9845 19.3964 20.5385 20.112 19.1915Z" fill="white"/>
<path d="M8.61539 29.7667C8.61539 29.2213 9.03255 28.7646 9.58034 28.7104L18.2064 27.8558C18.8372 27.7933 19.3846 28.2841 19.3846 28.9121C19.3846 29.4575 18.9675 29.9142 18.4197 29.9685L9.79359 30.823C9.16277 30.8855 8.61539 30.3948 8.61539 29.7667Z" fill="white"/>
<path d="M11.8462 32.9412C11.8462 32.4073 12.2475 31.9569 12.7822 31.8907L14.9527 31.6219C15.5905 31.543 16.1538 32.0356 16.1538 32.6724C16.1538 33.2063 15.7525 33.6567 15.2178 33.7229L13.0473 33.9917C12.4095 34.0707 11.8462 33.578 11.8462 32.9412Z" fill="white"/>
</svg>
