<svg width="22" height="36" viewBox="0 0 22 36" fill="none" xmlns="http://www.w3.org/2000/svg">
<path d="M18.5 9.5C18.5 10.8807 17.3808 12 16 12C14.6193 12 13.5 10.8807 13.5 9.5C13.5 8.11929 14.6193 7 16 7C17.3808 7 18.5 8.11929 18.5 9.5Z" fill="white"/>
<path fill-rule="evenodd" clip-rule="evenodd" d="M16.1603 13.4503L17.8641 15.3975C17.9909 15.5424 18.1568 15.6477 18.342 15.7006L21.2747 16.5385C21.8058 16.6902 22.1133 17.2437 21.9615 17.7747C21.8098 18.3058 21.2563 18.6133 20.7253 18.4615L17.7925 17.6236C17.3369 17.4934 16.9201 17.2576 16.5751 16.9372L15.2193 21.0044C15.1329 21.2636 15.1564 21.5469 15.2842 21.7885L19.3838 29.5321C19.6422 30.0202 19.456 30.6254 18.9679 30.8838C18.5682 31.0954 17.5 31 16 29.5C14.5 28 11.2934 22.9413 11.2934 22.9413C10.7207 22.13 10.5866 21.0878 10.9353 20.1579L12.8427 15.0716L10.6603 17.2539C10.513 17.4013 10.4153 17.591 10.381 17.7966L9.98641 20.1644C9.89562 20.7092 9.38039 21.0772 8.83562 20.9864C8.29085 20.8956 7.92283 20.3804 8.01362 19.8356L8.40826 17.4678C8.51105 16.8511 8.80398 16.2818 9.24612 15.8397L11.7813 13.3045C13.0082 12.0776 15.0343 12.1635 16.1603 13.4503Z" fill="white"/>
<path d="M10.3153 23.271C10.2922 23.2926 10.2701 23.3154 10.249 23.3394C10.1901 23.4065 10.1408 23.4808 10.1022 23.5598L7.11551 29.5331C7.0846 29.5916 7.05989 29.6526 7.04139 29.715C6.99591 29.8672 6.9886 30.0246 7.01539 30.1749C7.03895 30.3082 7.08968 30.4377 7.16759 30.5544C7.2339 30.6542 7.31881 30.743 7.42038 30.8151C7.51403 30.8819 7.61661 30.9306 7.72329 30.9612C7.86704 31.0028 8.0151 31.0105 8.1573 30.9877C8.30269 30.9647 8.44397 30.9095 8.56969 30.8222C8.6246 30.7842 8.67602 30.7405 8.72295 30.6914L11.6879 27.7265C12.0439 27.3705 12.2955 26.9413 12.4357 26.4816C12.3756 26.3939 12.3162 26.307 12.2577 26.2211C11.7581 25.4877 11.3064 24.8025 10.9798 24.3009C10.8164 24.0499 10.684 23.8445 10.5924 23.7016C10.5465 23.6301 10.5108 23.5742 10.4865 23.5361L10.4614 23.4967C10.41 23.4228 10.3613 23.3475 10.3153 23.271Z" fill="white"/>
<path d="M11.2602 2.60712L6.88342 0.827105C3.59532 -0.510163 -0.000244141 1.90907 -0.000244141 5.45871V30.5413C-0.000244141 34.0909 3.59531 36.5102 6.88342 35.1729L11.2602 33.3929C12.9595 32.7017 14.2169 31.2887 14.7367 29.5929C14.2368 28.9996 13.6656 28.2319 13.1137 27.4541C13.0778 27.523 13.0398 27.591 12.9998 27.658V27.835C12.9998 29.4622 12.014 30.9272 10.5067 31.5402L6.12995 33.3203C4.15709 34.1226 1.99976 32.6711 1.99976 30.5413V28.108L6.47442 28.579L6.95204 27.6238L1.99976 27.1025V9.9011L10.6082 7.98811C10.8778 7.9282 11.0478 7.66112 10.9879 7.39155C10.928 7.12198 10.6609 6.95202 10.3913 7.01192L1.99976 8.87671V5.45871C1.99976 3.32893 4.15709 1.87739 6.12996 2.67975L10.5067 4.45976C11.8801 5.01831 12.8204 6.28415 12.9767 7.73552C13.3654 7.071 13.9669 6.54611 14.6877 6.25436C14.1407 4.62674 12.9083 3.2774 11.2602 2.60712Z" fill="white"/>
</svg>
