<svg width="28" height="24" viewBox="0 0 28 24" fill="none" xmlns="http://www.w3.org/2000/svg">
<path d="M0.5 4.44319C0.5 1.98928 2.60232 0 5.19565 0H12.168C14.7613 0 16.8636 1.98929 16.8636 4.4432V7.3755L23.4942 0.900346C24.3243 0.0896755 25.6918 0.0692663 26.5485 0.85476C27.4052 1.64025 27.4268 2.9342 26.5967 3.74487L19.7376 10.4432C18.9167 11.2448 18.9274 12.5214 19.7615 13.3107L23.455 16.8056C21.9678 17.1996 20.8215 18.3656 20.5292 19.8181L16.8636 16.3496V19.5568C16.8636 22.0107 14.7613 24 12.168 24H5.19565C2.60232 24 0.5 22.0107 0.5 19.5568V4.44319Z" fill="white"/>
<path d="M24.5652 23.3268C26.1861 23.3268 27.5 22.0835 27.5 20.5498C27.5 19.0161 26.1861 17.7728 24.5652 17.7728C22.9444 17.7728 21.6304 19.0161 21.6304 20.5498C21.6304 22.0835 22.9444 23.3268 24.5652 23.3268Z" fill="white"/>
</svg>
