<svg width="22" height="36" viewBox="0 0 22 36" fill="none" xmlns="http://www.w3.org/2000/svg">
<path d="M15.75 0.5L15.75 6.36207L14.75 7.31662V0.5C14.75 0.223858 14.9739 0 15.25 0C15.5261 0 15.75 0.223858 15.75 0.5Z" fill="white"/>
<path d="M20.75 2.5V3.70801C20.4323 3.56956 20.0913 3.50005 19.75 3.5V2.5C19.75 2.22386 19.9739 2 20.25 2C20.5261 2 20.75 2.22386 20.75 2.5Z" fill="white"/>
<path d="M19.75 10.5V9.45611L20.75 8.50157V10.5C20.75 10.7761 20.5261 11 20.25 11C19.9739 11 19.75 10.7761 19.75 10.5Z" fill="white"/>
<path d="M5.75 8.42231C5.38595 8.60323 5.04987 8.832 4.75 9.10039V5.5C4.75 5.22386 4.97386 5 5.25 5C5.52614 5 5.75 5.22386 5.75 5.5L5.75 8.42231Z" fill="white"/>
<path d="M5.25 1C5.52614 1 5.75 1.22386 5.75 1.5L5.75 2.5C5.75 2.77614 5.52614 3 5.25 3C4.97386 3 4.75 2.77614 4.75 2.5V1.5C4.75 1.22386 4.97386 1 5.25 1Z" fill="white"/>
<path d="M2.75 6.5C2.75 6.22386 2.52614 6 2.25 6C1.97386 6 1.75 6.22386 1.75 6.5L1.75 21.5C1.75 21.7761 1.97386 22 2.25 22C2.52614 22 2.75 21.7761 2.75 21.5L2.75 6.5Z" fill="white"/>
<path d="M15.75 22.5C15.75 22.2239 15.5261 22 15.25 22C14.9739 22 14.75 22.2239 14.75 22.5V24.5C14.75 24.7761 14.9739 25 15.25 25C15.5261 25 15.75 24.7761 15.75 24.5L15.75 22.5Z" fill="white"/>
<path d="M2.75 24.5C2.75 24.2239 2.52614 24 2.25 24C1.97386 24 1.75 24.2239 1.75 24.5L1.75 25.5C1.75 25.7761 1.97386 26 2.25 26C2.52614 26 2.75 25.7761 2.75 25.5L2.75 24.5Z" fill="white"/>
<path d="M6.25 27C6.52614 27 6.75 27.2239 6.75 27.5L6.75 31.5C6.75 31.7761 6.52614 32 6.25 32C5.97386 32 5.75 31.7761 5.75 31.5V27.5C5.75 27.2239 5.97386 27 6.25 27Z" fill="white"/>
<path d="M6.75 17.5C6.75 17.2239 6.52614 17 6.25 17C5.97386 17 5.75 17.2239 5.75 17.5V25.5C5.75 25.7761 5.97386 26 6.25 26C6.52614 26 6.75 25.7761 6.75 25.5L6.75 17.5Z" fill="white"/>
<path d="M9.25 18C9.52614 18 9.75 18.2239 9.75 18.5L9.75 30.5C9.75 30.7761 9.52614 31 9.25 31C8.97386 31 8.75 30.7761 8.75 30.5L8.75 18.5C8.75 18.2239 8.97386 18 9.25 18Z" fill="white"/>
<path d="M12.75 27.5C12.75 27.2239 12.5261 27 12.25 27C11.9739 27 11.75 27.2239 11.75 27.5L11.75 32.5C11.75 32.7761 11.9739 33 12.25 33C12.5261 33 12.75 32.7761 12.75 32.5L12.75 27.5Z" fill="white"/>
<path d="M12.25 14C12.5261 14 12.75 14.2239 12.75 14.5L12.75 24.5C12.75 24.7761 12.5261 25 12.25 25C11.9739 25 11.75 24.7761 11.75 24.5L11.75 14.5C11.75 14.2239 11.9739 14 12.25 14Z" fill="white"/>
<path d="M15.75 11.5C15.75 11.2239 15.5261 11 15.25 11C14.9739 11 14.75 11.2239 14.75 11.5V19.5C14.75 19.7761 14.9739 20 15.25 20C15.5261 20 15.75 19.7761 15.75 19.5L15.75 11.5Z" fill="white"/>
<path d="M18.25 15C18.5261 15 18.75 15.2239 18.75 15.5V25.5C18.75 25.7761 18.5261 26 18.25 26C17.9739 26 17.75 25.7761 17.75 25.5V15.5C17.75 15.2239 17.9739 15 18.25 15Z" fill="white"/>
<path d="M9.75 12.5C9.75 12.2239 9.52614 12 9.25 12C8.97386 12 8.75 12.2239 8.75 12.5V14.5C8.75 14.7761 8.97386 15 9.25 15C9.52614 15 9.75 14.7761 9.75 14.5L9.75 12.5Z" fill="white"/>
<path d="M15.25 27C15.5261 27 15.75 27.2239 15.75 27.5L15.75 31.5C15.75 31.7761 15.5261 32 15.25 32C14.9739 32 14.75 31.7761 14.75 31.5V27.5C14.75 27.2239 14.9739 27 15.25 27Z" fill="white"/>
<path d="M0.75 32C0.75 30.6913 2.32111 29.5295 4.75 28.7997V29.8474C4.505 29.9272 4.27142 30.0116 4.05029 30.1C3.21521 30.4341 2.60651 30.8068 2.22296 31.1696C1.84149 31.5303 1.75 31.8113 1.75 32C1.75 32.1887 1.84149 32.4697 2.22296 32.8304C2.60651 33.1932 3.21521 33.5659 4.05029 33.9C5.71497 34.5658 8.08325 35 10.75 35C13.4167 35 15.785 34.5658 17.4497 33.9C18.2848 33.5659 18.8935 33.1932 19.277 32.8304C19.6585 32.4697 19.75 32.1887 19.75 32C19.75 31.8113 19.6585 31.5303 19.277 31.1696C18.8935 30.8068 18.2848 30.4341 17.4497 30.1C17.2286 30.0116 16.995 29.9272 16.75 29.8474V28.7997C19.1789 29.5295 20.75 30.6913 20.75 32C20.75 34.2091 16.2728 36 10.75 36C5.22717 36 0.75 34.2091 0.75 32Z" fill="white"/>
<path d="M10.25 8C12.183 8 13.75 6.433 13.75 4.5C13.75 2.567 12.183 1 10.25 1C8.317 1 6.75 2.567 6.75 4.5C6.75 6.433 8.317 8 10.25 8Z" fill="white"/>
<path d="M20.835 4.96428C21.407 5.56353 21.385 6.51302 20.7857 7.08503L16.6987 10.9863L16.6695 11.0139C16.4675 10.424 15.9083 10 15.25 10C14.4216 10 13.75 10.6716 13.75 11.5L13.75 14.4973C13.7486 13.6701 13.0775 13 12.25 13C11.4216 13 10.75 13.6716 10.75 14.5V12.5C10.75 11.6716 10.0784 11 9.25 11C8.42157 11 7.75 11.6716 7.75 12.5V14.5C7.75 15.3284 8.42157 16 9.25 16C10.0784 16 10.75 15.3284 10.75 14.5V18.4994C10.7497 17.6712 10.0782 17 9.25 17C8.42157 17 7.75 17.6716 7.75 18.5V17.5C7.75 16.6716 7.07843 16 6.25 16C5.42157 16 4.75 16.6716 4.75 17.5V21.1181C4.44313 20.8434 4.25 20.4443 4.25 20V12.4545C4.25 10.5216 5.817 8.95454 7.75 8.95454H14.282C14.4106 8.95454 14.5342 8.90501 14.6273 8.81622L18.7143 4.91497C19.3135 4.34296 20.263 4.36504 20.835 4.96428Z" fill="white"/>
</svg>
