<svg width="34" height="34" viewBox="0 0 34 34" fill="none" xmlns="http://www.w3.org/2000/svg">
<path d="M12.8205 4.74518C11.196 7.83773 10.1656 12.1691 10.1656 17C10.1656 18.8662 10.3194 20.6579 10.6017 22.3324C12.574 22.7381 14.7321 22.9633 17 22.9633C21.8445 22.9633 26.1881 21.9358 29.2893 20.3159C32.0166 18.8914 33.6235 17.107 34 15.2795C33.1728 7.05338 26.4779 0.552312 18.151 0C16.2213 0.263156 14.3216 1.88733 12.8205 4.74518Z" fill="white"/>
<path d="M14.1021 0.206002C13.0277 1.18094 12.0866 2.47038 11.3069 3.95461C9.53024 7.33695 8.45698 11.9506 8.45698 17C8.45698 18.692 8.57748 20.335 8.80457 21.8991C7.28389 21.4758 5.90514 20.9398 4.71067 20.3159C1.98345 18.8914 0.376542 17.107 0 15.2795C0.768515 7.63725 6.60131 1.48387 14.1021 0.206002Z" fill="white"/>
<path d="M0.0166443 18.8787C0.849152 26.4475 6.6531 32.525 14.1021 33.794C13.0277 32.8191 12.0866 31.5296 11.3069 30.0454C10.365 28.2522 9.62078 26.113 9.12939 23.7462C7.19335 23.2676 5.4325 22.6163 3.91786 21.8252C2.3562 21.0095 1.00956 20.0165 0.0166443 18.8787Z" fill="white"/>
<path d="M18.151 34C26.4244 33.4512 33.0868 27.0298 33.9834 18.8787C32.9904 20.0165 31.6438 21.0095 30.0821 21.8252C26.6903 23.5969 22.0636 24.6671 17 24.6671C14.894 24.6671 12.8636 24.482 10.9661 24.1383C11.4221 26.0671 12.0554 27.7983 12.8205 29.2548C14.3216 32.1127 16.2213 33.7368 18.151 34Z" fill="white"/>
</svg>
