<svg width="34" height="36" viewBox="0 0 34 36" fill="none" xmlns="http://www.w3.org/2000/svg">
<path fill-rule="evenodd" clip-rule="evenodd" d="M12.9456 8.58904C12.7092 8.56616 12.5384 8.35681 12.5384 8.12062C12.5384 7.88443 12.7092 7.67508 12.9456 7.6522L15.0405 7.44939C15.4519 7.40956 15.8217 7.70944 15.8217 8.12062C15.8217 8.5318 15.4519 8.83168 15.0405 8.79185L12.9456 8.58904ZM11.2563 5.04142C11.4241 5.2084 11.6936 5.2365 11.877 5.08659L13.502 3.75851C13.8221 3.49682 13.8709 3.0235 13.5779 2.73203C13.2848 2.44055 12.809 2.48903 12.546 2.80752L11.2109 4.42395C11.0602 4.6064 11.0884 4.87445 11.2563 5.04142ZM8.16083 3.76598C8.39827 3.76598 8.60872 3.59608 8.63172 3.361L8.8356 1.27704C8.87564 0.867788 8.57418 0.5 8.16083 0.5C7.74748 0.5 7.44602 0.867788 7.48606 1.27704L7.68994 3.361C7.71294 3.59608 7.92339 3.76598 8.16083 3.76598ZM5.06539 5.04142C5.23324 4.87445 5.26149 4.6064 5.11079 4.42395L3.7757 2.80752C3.51264 2.48903 3.03682 2.44055 2.7438 2.73203C2.45079 3.0235 2.49952 3.49683 2.8197 3.75851L4.44465 5.08659C4.62807 5.2365 4.89753 5.2084 5.06539 5.04142ZM3.37609 7.6522C3.61242 7.67508 3.78321 7.88443 3.78321 8.12062C3.78321 8.35681 3.61242 8.56616 3.37609 8.58904L1.28114 8.79185C0.869729 8.83168 0.5 8.5318 0.5 8.12062C0.5 7.70944 0.869729 7.40956 1.28114 7.44939L3.37609 7.6522ZM5.06539 11.1998C4.89753 11.0328 4.62807 11.0047 4.44465 11.1546L2.8197 12.4827C2.49952 12.7444 2.45079 13.2177 2.74381 13.5092C3.03682 13.8007 3.51264 13.7522 3.7757 13.4337L5.11079 11.8173C5.26149 11.6348 5.23324 11.3668 5.06539 11.1998Z" fill="white"/>
<path fill-rule="evenodd" clip-rule="evenodd" d="M7.06643 8.12279V31.6897C7.06643 32.2242 7.31086 32.6559 7.59209 32.9666C7.86751 33.2709 8.2225 33.5122 8.58886 33.7081C9.32313 34.1005 10.3134 34.4201 11.4443 34.6758C13.7235 35.1911 16.8184 35.5 20.1993 35.5C23.5802 35.5 26.675 35.1911 28.9543 34.6758C30.8269 34.2524 35.3434 32.6676 32.68 30.1145L8.92023 7.33887C8.22516 6.67259 7.06643 7.16259 7.06643 8.12279ZM20.1993 34.4114C26.848 34.4114 32.2378 33.1928 32.2378 31.6897C32.2378 30.1866 26.848 28.9681 20.1993 28.9681C13.5507 28.9681 8.16086 30.1866 8.16086 31.6897C8.16086 33.1928 13.5507 34.4114 20.1993 34.4114Z" fill="white"/>
<path d="M11.4417 8.24405C11.4433 8.20309 11.444 8.16195 11.444 8.12062C11.444 6.31687 9.9741 4.85464 8.16083 4.85464C6.34756 4.85464 4.87762 6.31687 4.87762 8.12062C4.87762 9.08788 5.30032 9.95693 5.97199 10.555V8.12274C5.97199 6.20233 8.28946 5.22234 9.6796 6.5549L11.4417 8.24405Z" fill="white"/>
</svg>
