<svg width="38" height="24" viewBox="0 0 38 24" fill="none" xmlns="http://www.w3.org/2000/svg">
<path d="M29.7419 12.5258C31.3333 11.6216 31.3333 9.3609 29.7419 8.45664L15.4194 0.318258C13.828 -0.586007 11.8387 0.544324 11.8387 2.35285V15.8115C14.0083 16.1648 16.4323 16.3646 19 16.3646C20.4996 16.3646 21.9502 16.2965 23.3297 16.1694L29.7419 12.5258Z" fill="white"/>
<path d="M18.852 18.7137C16.3785 18.7067 14.0095 18.5227 11.8387 18.1909V18.6296C11.8387 20.4381 13.828 21.5685 15.4194 20.6642L18.852 18.7137Z" fill="white"/>
<path d="M10.6452 10.6383V11.8349C9.12661 12.1297 7.74639 12.5018 6.54595 12.935C5.89511 13.1699 5.30245 13.4208 4.77234 13.6842C4.32837 13.4498 3.94105 13.2088 3.61202 12.9649C4.35006 12.5487 5.19882 12.17 6.13507 11.8321C7.45971 11.3541 8.97958 10.9507 10.6452 10.6383Z" fill="white"/>
<path d="M1.65474 14.423C0.94086 15.1636 0.5 16.0134 0.5 16.952C0.5 18.0776 1.13411 19.0755 2.11279 19.9105C3.09306 20.7469 4.47684 21.4734 6.13507 22.0718C9.45628 23.2703 14.0048 24 19 24C23.9952 24 28.5437 23.2703 31.8649 22.0718C33.5232 21.4734 34.9069 20.7469 35.8872 19.9105C36.8659 19.0755 37.5 18.0776 37.5 16.952C37.5 16.0134 37.0591 15.1636 36.3453 14.423C36.323 14.4424 36.3006 14.4618 36.2781 14.481C36.0083 14.7111 35.7122 14.932 35.3926 15.1434C36.0237 15.7642 36.3065 16.3747 36.3065 16.952C36.3065 17.6104 35.9386 18.3121 35.1054 19.023C34.2738 19.7325 33.0357 20.3982 31.4541 20.9689C28.2956 22.1087 23.8925 22.8253 19 22.8253C14.1075 22.8253 9.70442 22.1087 6.54595 20.9689C4.96433 20.3982 3.72624 19.7325 2.8946 19.023C2.06139 18.3121 1.69355 17.6104 1.69355 16.952C1.69355 16.3747 1.97627 15.7642 2.60745 15.1434C2.28776 14.932 1.99167 14.7111 1.72189 14.481C1.69937 14.4618 1.67699 14.4424 1.65474 14.423Z" fill="white"/>
<path d="M33.2277 13.6842C33.6716 13.4498 34.0589 13.2088 34.388 12.9649C33.6499 12.5487 32.8012 12.17 31.8649 11.8321C31.7134 12.199 31.4961 12.5443 31.2146 12.8502C31.2952 12.8782 31.375 12.9065 31.4541 12.935C32.1049 13.1699 32.6976 13.4208 33.2277 13.6842Z" fill="white"/>
<path d="M10.6452 5.96152V4.76498C8.97958 5.07729 7.45971 5.48072 6.13507 5.95874C4.47684 6.55714 3.09306 7.28365 2.11279 8.12C1.13411 8.955 0.5 9.95295 0.5 11.0786C0.5 12.2042 1.13411 13.2022 2.11279 14.0372C3.09306 14.8735 4.47684 15.6 6.13507 16.1984C9.45628 17.397 14.0048 18.1266 19 18.1266C23.9952 18.1266 28.5437 17.397 31.8649 16.1984C33.5232 15.6 34.9069 14.8735 35.8872 14.0372C36.8659 13.2022 37.5 12.2042 37.5 11.0786C37.5 9.95295 36.8659 8.955 35.8872 8.12C34.9069 7.28365 33.5232 6.55714 31.8649 5.95874C29.934 5.26193 27.5882 4.7236 24.981 4.395L27.9513 6.08279C29.2361 6.35606 30.4127 6.68584 31.4541 7.06162C33.0357 7.63238 34.2738 8.29804 35.1054 9.00758C35.9386 9.71848 36.3065 10.4201 36.3065 11.0786C36.3065 11.737 35.9386 12.4387 35.1054 13.1496C34.2738 13.8591 33.0357 14.5248 31.4541 15.0956C28.2956 16.2354 23.8925 16.952 19 16.952C14.1075 16.952 9.70442 16.2354 6.54595 15.0956C4.96433 14.5248 3.72624 13.8591 2.8946 13.1496C2.06139 12.4387 1.69355 11.737 1.69355 11.0786C1.69355 10.4201 2.06139 9.71848 2.8946 9.00758C3.72624 8.29804 4.96433 7.63238 6.54595 7.06162C7.74639 6.62842 9.12661 6.25635 10.6452 5.96152Z" fill="white"/>
</svg>
