<svg width="36" height="26" viewBox="0 0 36 26" fill="none" xmlns="http://www.w3.org/2000/svg">
<path fill-rule="evenodd" clip-rule="evenodd" d="M15.8125 5.93478H32.6875C33.2685 5.93478 33.559 5.93478 33.7993 5.98929C34.4019 6.12598 34.9074 6.50617 35.207 7.02174H33.3125V9.19565H35.5V13.866C35.5 15.6603 34.0363 17.1149 32.2308 17.1149C30.2059 17.1149 28.3479 18.2309 27.4066 20.0127L27.3789 20.0652H24.5625V22.2391H26.2305L26.2031 22.2909C25.8669 22.9274 25.2031 23.3261 24.4798 23.3261H15.8125V22.2391H18V20.0652H15.8125V9.19565H18V7.02174H15.8125V5.93478ZM20.1875 7.02174H22.375V9.19565H20.1875V7.02174ZM22.375 20.0652H20.1875V22.2391H22.375V20.0652ZM24.5625 7.02174H26.75V9.19565H24.5625V7.02174ZM28.9375 7.02174H31.125V9.19565H28.9375V7.02174Z" fill="white"/>
<path d="M7.60938 7.02162C10.6483 7.02162 13.3013 6.36472 14.7188 5.38865V22.239C14.7188 22.239 14.7188 22.239 14.7188 22.239C14.7188 24.0399 11.5358 25.5 7.60938 25.5C3.68298 25.5 0.5 24.0401 0.5 22.2391C0.5 22.2391 0.5 22.2392 0.5 22.2391V5.38865C1.91745 6.36472 4.57043 7.02162 7.60938 7.02162Z" fill="white"/>
<path d="M4.32812 2.91884C2.05325 3.28139 0.5 4.00916 0.5 4.84787C0.5 6.04849 3.68298 7.02162 7.60938 7.02162C11.5358 7.02162 14.7188 6.04849 14.7188 4.84787C14.7188 4.00916 13.1655 3.28139 10.8906 2.91884V3.76082C10.8906 4.10849 10.7111 4.38472 10.5046 4.57878C10.2993 4.77177 10.0315 4.92052 9.74597 5.03403C9.17185 5.26225 8.41621 5.39126 7.60938 5.39126C6.80254 5.39126 6.0469 5.26225 5.47278 5.03403C5.18723 4.92052 4.91945 4.77177 4.71412 4.57878C4.50763 4.38472 4.32812 4.10849 4.32812 3.76082V2.91884Z" fill="white"/>
<path d="M10.3438 1.58696C10.3438 2.18727 9.11953 2.67391 7.60938 2.67391C6.09922 2.67391 4.875 2.18727 4.875 1.58696C4.875 0.986647 6.09922 0.5 7.60938 0.5C9.11953 0.5 10.3438 0.986647 10.3438 1.58696Z" fill="white"/>
<path d="M10.3438 1.58696C10.3438 2.18727 9.11953 2.67391 7.60938 2.67391C6.09922 2.67391 4.875 2.18727 4.875 1.58696C4.875 0.986647 6.09922 0.5 7.60938 0.5C9.11953 0.5 10.3438 0.986647 10.3438 1.58696Z" fill="white"/>
<path d="M7.60938 3.21739C8.41621 3.21739 9.17185 3.08838 9.74597 2.86016C9.96182 2.77436 10.1675 2.66842 10.3438 2.53846V3.76087C10.3438 4.36114 9.11942 4.84783 7.60938 4.84783C6.09933 4.84783 4.875 4.36114 4.875 3.76087V2.53846C5.05124 2.66842 5.25693 2.77436 5.47278 2.86016C6.0469 3.08838 6.80254 3.21739 7.60938 3.21739Z" fill="white"/>
<path d="M8.58705 2.60237C8.27496 2.64905 7.94728 2.67391 7.60938 2.67391C7.27147 2.67391 6.94379 2.64905 6.63169 2.60237C6.93528 2.64859 7.26489 2.67391 7.60938 2.67391C7.95386 2.67391 8.28346 2.64859 8.58705 2.60237Z" fill="white"/>
</svg>
